<svg version="1.0"
     xmlns="http://www.w3.org/2000/svg"
     width="600.000000pt"
     height="600.000000pt"
     viewBox="0 0 600.000000 600.000000"
     preserveAspectRatio="xMidYMid meet">
  <g transform="translate(0.000000,600.000000) scale(0.100000,-0.100000)" fill="#000000" stroke="none">
    <path d="M320 5440 l0 -200 39 0 c43 0 1514 57 2841 110 135 5 423 17 640 25
    217 9 490 20 605 24 l210 9 50 54 c28 30 74 82 103 116 l54 62 -2271 0 -2271
    0 0 -200z"/>
    <path d="M413 5213 l-93 -4 0 -2409 0 -2410 365 0 365 0 0 44 c0 24 -7 127
    -15 228 -8 100 -24 302 -35 448 -30 398 -122 1611 -200 2645 -39 506 -77 1008
    -85 1115 -8 107 -17 230 -21 273 l-6 77 -92 -2 c-50 -1 -133 -4 -183 -5z"/>
    <path d="M5520 4774 c-58 -69 -112 -135 -121 -147 -13 -17 -25 -108 -53 -382
    -20 -198 -41 -398 -46 -445 -5 -47 -19 -175 -30 -285 -11 -110 -56 -551 -100
    -980 -44 -429 -96 -933 -115 -1120 -19 -187 -40 -389 -46 -448 -6 -59 -10
    -109 -8 -111 5 -4 538 -36 597 -36 l42 0 0 2040 c0 1122 -3 2040 -7 2039 -5 0
    -55 -57 -113 -125z"/>
    <path d="M3580 2683 l0 -298 -38 44 c-37 42 -37 43 -55 23 -17 -19 -15 -23 68
    -143 47 -68 88 -125 91 -128 2 -2 4 176 4 397 l0 402 -35 0 -35 0 0 -297z"/>
    <path d="M3140 2965 c0 -6 0 -185 -1 -400 l0 -390 30 -3 31 -3 0 303 1 303 39
    -45 c39 -45 40 -45 59 -25 19 20 19 21 -42 106 -34 47 -74 103 -89 125 -16 21
    -28 34 -28 29z"/>
    <path d="M1761 2944 c-169 -45 -276 -158 -304 -319 -21 -125 17 -250 105 -338
    69 -69 142 -100 251 -105 l87 -4 0 29 0 30 -74 5 c-145 9 -252 92 -296 228
    -40 125 -7 245 94 337 61 56 128 83 214 86 l62 2 0 33 c0 31 -1 32 -42 31 -24
    0 -67 -7 -97 -15z"/>
    <path d="M2397 2946 c-160 -57 -248 -243 -218 -459 19 -138 97 -255 194 -292
    53 -20 53 -20 62 15 5 21 1 27 -26 39 -45 19 -104 81 -132 138 -73 144 -52
    325 52 436 57 62 109 86 182 87 104 0 194 -65 248 -180 23 -48 26 -68 26 -160
    0 -92 -3 -112 -26 -160 -32 -69 -79 -123 -134 -156 -34 -19 -42 -29 -38 -45 3
    -11 11 -23 18 -25 21 -8 80 21 124 62 85 76 121 172 121 319 0 189 -64 306
    -200 369 -45 21 -70 26 -135 25 -44 0 -97 -6 -118 -13z"/>
    <path d="M4295 2953 c-22 -6 -83 -49 -102 -73 -48 -59 -31 -173 34 -231 21
    -19 84 -62 140 -97 122 -74 147 -105 148 -178 0 -57 -18 -90 -69 -128 -23 -18
    -42 -21 -114 -21 -48 0 -102 4 -119 7 -31 7 -33 6 -33 -21 0 -25 4 -29 38 -35
    60 -9 159 -7 210 6 58 14 135 87 145 137 11 56 8 104 -12 146 -18 41 -83 92
    -228 179 -87 52 -113 85 -113 146 0 42 4 52 35 78 41 37 81 46 175 40 l70 -4
    0 28 0 28 -92 -1 c-51 -1 -102 -4 -113 -6z"/>
    <path d="M1140 2565 l0 -385 35 0 35 0 0 385 0 385 -35 0 -35 0 0 -385z"/>
    <path d="M1906 1602 c-93 -218 -171 -401 -173 -405 -3 -5 11 -7 31 -5 l37 3
    90 210 c50 116 110 254 133 308 23 55 45 100 50 100 5 1 70 -139 144 -310
    l136 -313 34 0 c28 0 33 3 29 18 -5 17 -337 785 -341 789 -1 1 -78 -176 -170
    -395z"/>
    <path d="M1140 1580 l0 -390 35 0 35 0 0 355 0 355 140 0 140 0 0 35 0 35
    -175 0 -175 0 0 -390z"/>
    <path d="M2710 1579 l0 -390 33 3 32 3 3 388 2 387 -35 0 -35 0 0 -391z"/>
    <path d="M3340 1579 l0 -390 38 3 37 3 3 388 2 387 -40 0 -40 0 0 -391z"/>
    <path d="M1045 928 c4 -68 15 -215 24 -328 l16 -205 2275 0 2275 0 3 193 c2
    149 0 193 -10 196 -7 3 -335 23 -728 45 -393 23 -785 46 -870 51 -85 6 -312
    19 -505 30 -192 11 -813 47 -1380 80 -566 33 -1047 60 -1069 60 l-38 0 7 -122z"/>
  </g>
</svg>
