<svg xmlns="http://www.w3.org/2000/svg" width="290.148" height="286.196" viewBox="0 0 290.148 286.196"><path d="M0 286.196V24.168l20.057-.756 19.98 262.784H0zM290.137 264.72v21.468H42.397c-.85-11.93-1.698-23.867-2.565-36.053l250.305 14.584zM290.148 39.81v222.427c-11.586-.65-23.13-1.3-34.787-1.955.252-2.562 20.12-192.64 20.405-199.29.174-4.04 1.98-6.828 4.493-9.606 3.343-3.697 6.487-7.573 9.89-11.577zM.02 21.67V0h247.883c-1.11 1.258-8.135 9.165-10.685 11.925-.352.38-.99.67-1.51.692C223.846 13.122 1.805 21.67.02 21.67zM115.863 143.944l1.203 2.838c-1.248.703-2.514 1.292-3.646 2.076-4.208 2.913-6.535 7.078-7.463 12-1.194 6.33-.185 12.296 3.86 17.457 6.1 7.787 15.96 7.695 22.072-.1 6.248-7.97 5.46-21-1.797-27.777-1.55-1.446-3.472-2.49-5.372-3.825l.92-2.71c2.34.56 4.478 1.502 6.283 3.024 4.12 3.475 6.235 8.01 7.042 13.308.8 5.257.3 10.336-1.49 15.305-2.388 6.634-8.255 10.802-15.254 11.197-5.373.304-10.135-.995-14.046-4.75-2.935-2.818-4.574-6.395-5.337-10.36-1.04-5.414-.98-10.813.823-16.056 1.97-5.724 5.685-9.81 11.677-11.52.147-.04.3-.06.526-.106zM78.02 242.05l18.912-44.373 19.13 44.362h-3.894l-15.233-35.13c-1.174 2.698-2.25 5.156-3.315 7.62-3.35 7.764-6.693 15.53-10.04 23.294-.173.4-.353.8-.524 1.2-1.346 3.172-1.345 3.172-5.035 3.027zM211.644 183.364c3.716.224 7.24.556 10.768.62 4.59.083 8.157-4.188 7.84-8.777-.226-3.27-1.935-5.388-4.48-7.022-3.3-2.12-6.747-4.016-9.975-6.237-3.722-2.56-5.436-6.247-4.583-10.742.64-3.368 2.96-5.573 6.122-6.754 1.232-.46 2.61-.653 3.935-.72 2.305-.118 4.62-.012 6.928-.062.898-.02 1.096.38 1.03 1.165-.052.628-.01 1.264-.01 1.798-2.55-.104-4.962-.34-7.363-.267-2.88.087-5.488.985-7.18 3.565-1.393 2.125-1.01 5.292.643 7.203 2.407 2.785 5.726 4.236 8.688 6.212 2.173 1.448 4.344 2.904 6.442 4.456 1.956 1.447 2.985 3.46 3.12 5.904.143 2.59.292 5.2-1.298 7.476-2.34 3.35-5.435 5.46-9.65 5.457-3.35-.003-6.7-.156-10.048-.215-.634-.01-.98-.163-.938-.876.043-.75.01-1.502.01-2.182zM45.89 199.436h19.042v3.735h-15.28v38.617H45.89v-42.35zM154.855 142.585l12.314 17.206c-.666.625-1.35 1.268-2.167 2.033-2.11-2.672-4.17-5.276-6.344-8.03v32.763h-3.806v-43.97zM179.246 175.478v-32.893h3.762v44.033l-12.136-17 2.22-2.057 6.154 7.918zM166.12 199.44h3.936v42.315h-3.935V199.44zM45.883 144.24h3.933v42.073h-3.933V144.24zM131.568 199.432h3.68v42.358h-3.68v-42.358zM87.49 182.837v3.38c-12.555 1.852-23.57-6.324-24.406-18.272.945 0 1.89-.07 2.812.042.28.034.594.54.726.892.568 1.513.898 3.143 1.636 4.562 2.814 5.413 7.298 8.606 13.368 9.358 1.907.237 3.868.037 5.865.037zM87.507 143.768v3.504c-11.567-.59-18.87 4.516-21.44 16.045h-2.874c-.066-10.293 10.234-20.126 24.314-19.55zM197.556 143.005h3.184v11.877h-3.184v-11.877zM140.656 241.79v-3.448h10.662v3.448h-10.662zM185.898 238.342v3.446h-10.636v-3.446h10.636z"/><path d="M98.57 225.062v3.494h-6.952c.455-1.07.864-2.096 1.334-3.09.09-.192.415-.383.635-.387 1.624-.033 3.25-.018 4.982-.018zM59.656 218.167v3.437h-5.614v-3.437h5.614z"/></svg>